<svg id="Capa_1" enable-background="new 0 0 512 512" height="512" viewBox="0 0 512 512" width="512" xmlns="http://www.w3.org/2000/svg"><g><path d="m420.237 125.195-154.237-100.449v-14.746c0-5.523-4.477-10-10-10s-10 4.477-10 10v14.746l-154.237 100.449c-2.834 1.846-4.543 4.998-4.543 8.38v368.425c0 5.523 4.477 10 10 10h317.56c5.523 0 10-4.477 10-10v-368.425c0-3.382-1.709-6.535-4.543-8.38zm-164.237 6.491c5.523 0 10-4.477 10-10v-6.65c6.011 3.456 10.065 9.927 10.065 17.323 0 11.021-9.001 19.987-20.065 19.987s-20.065-8.966-20.065-19.987c0-7.396 4.054-13.867 10.065-17.323v6.65c0 5.523 4.477 10 10 10zm148.78 360.314h-297.56v-353.004l138.78-90.382v45.02c-17.27 4.444-30.065 20.122-30.065 38.726 0 22.049 17.973 39.987 40.065 39.987s40.065-17.938 40.065-39.987c0-18.604-12.796-34.282-30.065-38.726v-45.02l138.78 90.382z"/><path d="m135.296 231.906v222.144c0 5.523 4.477 10 10 10h221.407c5.523 0 10-4.477 10-10v-222.144c0-5.523-4.477-10-10-10h-221.407c-5.523 0-10 4.477-10 10zm20 10h201.407v202.144h-201.407z"/><path d="m286.045 267.802c-5.092-2.137-10.953.258-13.09 5.351l-53.169 126.69c-2.137 5.092.258 10.953 5.351 13.09 1.264.531 2.575.782 3.865.782 3.907 0 7.619-2.304 9.225-6.133l53.169-126.689c2.138-5.093-.258-10.953-5.351-13.091z"/><path d="m247.322 298.418c0-20.567-15.025-37.3-33.493-37.3s-33.493 16.732-33.493 37.3 15.025 37.3 33.493 37.3 33.493-16.733 33.493-37.3zm-33.493 17.3c-7.314 0-13.493-7.922-13.493-17.3s6.179-17.3 13.493-17.3 13.493 7.922 13.493 17.3c0 9.377-6.179 17.3-13.493 17.3z"/><path d="m295.636 347.738c-18.468 0-33.493 16.732-33.493 37.3 0 20.567 15.025 37.3 33.493 37.3s33.493-16.732 33.493-37.3c-.001-20.568-15.026-37.3-33.493-37.3zm0 54.599c-7.314 0-13.493-7.922-13.493-17.3s6.179-17.3 13.493-17.3 13.493 7.922 13.493 17.3-6.179 17.3-13.493 17.3z"/></g></svg>