<?xml version="1.0" encoding="utf-8"?>
<!-- Generator: Adobe Illustrator 19.0.1, SVG Export Plug-In . SVG Version: 6.00 Build 0)  -->
<svg version="1.1" id="Слой_1" xmlns="http://www.w3.org/2000/svg" xmlns:xlink="http://www.w3.org/1999/xlink" x="0px" y="0px"
	 viewBox="0 0 566 560" style="enable-background:new 0 0 566 560;" xml:space="preserve">
<style type="text/css">
	.st0{fill:#8AC440;}
	.st1{fill:url(#XMLID_2_);}
	.st2{fill:#FFFFFF;}
</style>
<g id="XMLID_135_">
	<circle id="XMLID_121_" class="st0" cx="283.1" cy="280.7" r="279.3"/>
	<linearGradient id="XMLID_2_" gradientUnits="userSpaceOnUse" x1="315.9532" y1="258.0458" x2="504.4319" y2="446.5245">
		<stop  offset="0" style="stop-color:#026838"/>
		<stop  offset="0.8957" style="stop-color:#026838;stop-opacity:0"/>
	</linearGradient>
	<path id="XMLID_140_" class="st1" d="M562.1,281.1c0-17.6-1.7-34.9-4.8-51.6l-91.4-90.7l-202.4,188l-40.5,108.3l119,119
		C467.8,526.9,562.1,415,562.1,281.1z"/>
	<g id="XMLID_146_">
		<path id="XMLID_158_" class="st2" d="M223.6,435.2L99.2,310.7c-15.6-15.6-15.6-40.8,0-56.4c15.6-15.6,40.8-15.6,56.4,0l68.4,68.4
			l186.1-184.1c15.7-15.5,40.9-15.4,56.4,0.3c15.5,15.7,15.4,40.9-0.3,56.4L223.6,435.2z"/>
	</g>
</g>
</svg>
