<?xml version="1.0" encoding="utf-8"?>
<!-- Generator: Adobe Illustrator 19.0.1, SVG Export Plug-In . SVG Version: 6.00 Build 0)  -->
<svg version="1.1" id="Слой_1" xmlns="http://www.w3.org/2000/svg" xmlns:xlink="http://www.w3.org/1999/xlink" x="0px" y="0px"
	 viewBox="-266 67 346.8 427" style="enable-background:new -266 67 346.8 427;" xml:space="preserve">
<style type="text/css">
	.st0{fill:#FF393C;}
</style>
<path class="st0" d="M-33.6,221.7c-5.5,0-10,4.5-10,10v189c0,5.5,4.5,10,10,10s10-4.5,10-10v-189C-23.6,226.2-28.1,221.7-33.6,221.7
	z"/>
<path class="st0" d="M-151.6,221.7c-5.5,0-10,4.5-10,10v189c0,5.5,4.5,10,10,10s10-4.5,10-10v-189
	C-141.6,226.2-146.1,221.7-151.6,221.7z"/>
<path class="st0" d="M-237.6,194.1v246.4c0,14.6,5.3,28.2,14.7,38.1c9.3,9.8,22.2,15.4,35.7,15.4H2c13.5,0,26.4-5.6,35.7-15.4
	c9.3-9.8,14.7-23.5,14.7-38.1V194.1c18.5-4.9,30.6-22.8,28.1-41.9C78,133.2,61.8,119,42.6,119H-8.6v-12.5c0.1-10.5-4.1-20.6-11.5-28
	C-27.6,71-37.7,66.9-48.2,67H-137c-10.5-0.1-20.6,4-28.1,11.5c-7.4,7.4-11.6,17.5-11.5,28V119h-51.2c-19.2,0-35.4,14.2-37.9,33.3
	C-268.2,171.3-256.1,189.2-237.6,194.1z M2,474h-189.2c-17.1,0-30.4-14.7-30.4-33.5V195h250v245.5C32.4,459.3,19.1,474,2,474z
	 M-156.6,106.5c-0.1-5.2,2-10.2,5.7-13.9c3.7-3.7,8.7-5.7,13.9-5.6h88.8c5.2-0.1,10.2,1.9,13.9,5.6c3.7,3.7,5.7,8.7,5.7,13.9V119
	h-128V106.5z M-227.8,139H42.6c9.9,0,18,8.1,18,18s-8.1,18-18,18h-270.4c-9.9,0-18-8.1-18-18S-237.7,139-227.8,139z"/>
<path class="st0" d="M-92.6,221.7c-5.5,0-10,4.5-10,10v189c0,5.5,4.5,10,10,10s10-4.5,10-10v-189C-82.6,226.2-87.1,221.7-92.6,221.7
	z"/>
</svg>
