<svg id="Слой_1" data-name="Слой 1" xmlns="http://www.w3.org/2000/svg" viewBox="0 0 213.66 68.29"><defs><style>.cls-1{fill:#0d4d9b;}</style></defs><title>logo</title><path class="cls-1" d="M33.94,61.26A28.33,28.33,0,0,1,.34,55.2l5.88-8c6,6.38,13,8.92,21.55,6C36,49.78,39.82,43.39,40.23,34.7c.62-.13,9-.15,9.7,0A28.76,28.76,0,0,1,33.94,61.26ZM7.41,21A19.68,19.68,0,0,1,19,15a17.82,17.82,0,0,1,9.89,1.53A18.75,18.75,0,0,1,36.57,23a1.1,1.1,0,0,0,1,.57c3.28,0,6.55,0,9.83,0a5.06,5.06,0,0,0,.53-.06A28.37,28.37,0,0,0,.33,14.07l6,8Zm45.18,4.15a1.25,1.25,0,0,0-1.16-.6q-21.42,0-42.85,0H7.7a2.24,2.24,0,0,0,.17.35C9.91,27.58,12,30.27,14,33a1.38,1.38,0,0,0,1.25.59c4.64,0,9.28,0,13.92,0H57.46l1,0L58,32.84C56.21,30.27,54.38,27.71,52.59,25.13Zm135.59,8.6.15,0c0,.16,0,.31,0,.47V38.4c0,1.8,0,3.61,0,5.42,0,.89,0,.92.94.92h3.3c.76,0,.92-.17.93-.93,0-.49,0-1,0-1.49q0-7.27,0-14.55c0-.31,0-.63,0-.94a1.43,1.43,0,0,0-1.5-1.49c-.5,0-1,0-1.49,0-1.8,0-1.94.08-2.91,1.62l-5.64,8.9c-.12.19-.27.36-.4.53a2.1,2.1,0,0,1-.16-.93v-9.2c0-.86-.06-.91-.88-.91h-3.07c-1.13,0-1.16,0-1.16,1.13V42.33a6.33,6.33,0,0,0,0,.87,1.52,1.52,0,0,0,1.66,1.52c.6,0,1.21,0,1.81,0a2.18,2.18,0,0,0,2.15-1.15c1.63-2.56,3.3-5.11,4.94-7.66C187.3,35.2,187.73,34.46,188.18,33.73ZM35.61,44.82a1.19,1.19,0,0,0,1.22-.73,19.17,19.17,0,0,0,2-5.92,7.29,7.29,0,0,0,.16-2.4l-.61,0H15.06a1.1,1.1,0,0,0-1,.49c-2,2.69-4,5.35-6.06,8-.1.14-.18.29-.35.56h1.2Q22.25,44.81,35.61,44.82ZM202.33,43.7c-.22.87-.42,1-1.31,1h-3.86c-.18,0-.35,0-.62-.07a4.54,4.54,0,0,1,.06-.77c.44-1.81.9-3.61,1.35-5.42a3.06,3.06,0,0,1,2.43-2.57l-.51-.24a3.49,3.49,0,0,1-2-2,6,6,0,0,1,.9-6.42,5.17,5.17,0,0,1,3.11-1.71,11.41,11.41,0,0,1,2.1-.21c2.29,0,4.57,0,6.85,0,1.63,0,2.06.41,2.07,2.05,0,3.17,0,6.34,0,9.51,0,2.23,0,4.46,0,6.69a5,5,0,0,1,0,.55c0,.45-.19.62-.65.62-1.37,0-2.73,0-4.09,0-.48,0-.56-.11-.56-.65,0-1.44,0-2.89,0-4.33V37.18a12.63,12.63,0,0,0-2.55.08,1.54,1.54,0,0,0-1.23,1c-.29.81-.54,1.64-.76,2.47C202.78,41.71,202.57,42.71,202.33,43.7Zm1.9-10.7c1.08.06,2.18,0,3.31,0V29.89c-1.1,0-2.14,0-3.18,0a1.39,1.39,0,0,0-1.52,1.44A1.44,1.44,0,0,0,204.23,33ZM103.6,44.73c1.33,0,2.67,0,4,0,.48,0,.59-.12.63-.61,0-.21,0-.42,0-.63v-6c0-.19,0-.39,0-.61h6v.89c0,2,0,3.93,0,5.9,0,1,.1,1.05,1,1.05h3.23c1.07,0,1.07,0,1.07-1.11,0-5.71,0-11.43,0-17.15,0-.21,0-.42,0-.63,0-.39-.14-.52-.54-.52-1.36,0-2.72,0-4.09,0-.47,0-.63.2-.68.68,0,.21,0,.42,0,.63v5.12c0,.2,0,.4,0,.62h-6v-.89c0-1.78,0-3.56,0-5.35,0-.72-.11-.82-.83-.82H104.2c-1.25,0-1.27,0-1.27,1.29v17c0,.16,0,.31,0,.47C103,44.57,103.09,44.73,103.6,44.73Zm20.71-2.37a4.3,4.3,0,0,0,3.92,2.34c3.09.06,6.18,0,9.27,0h.08c.46,0,.58-.16.62-.64,0-.21,0-.42,0-.63,0-.86,0-1.73,0-2.59,0-.5-.1-.57-.61-.6h-6.76a5.22,5.22,0,0,1-.79,0c-.64-.09-.95-.37-1-1s0-1.61,0-2.5h7.31c.41,0,.53-.18.58-.6a.75.75,0,0,0,0-.15c0-1,0-1.89,0-2.83,0-.58-.11-.66-.71-.69H129c0-.5,0-.89,0-1.28a1.22,1.22,0,0,1,1.22-1.36,4.1,4.1,0,0,1,.7,0h6.13c.55,0,.66-.11.67-.64,0-1.08,0-2.15,0-3.23,0-.48-.09-.54-.55-.57h-6c-.92,0-1.84,0-2.75,0a4.66,4.66,0,0,0-4.1,2.36,5.29,5.29,0,0,0-.66,2.49c0,3.22,0,6.44,0,9.67A5.23,5.23,0,0,0,124.31,42.36ZM146.51,39c0,1.62,0,3.25,0,4.87,0,.76-.08.83-.79.84H142c-.68,0-.81-.15-.83-.84,0-.5,0-1,0-1.49,0-4.93,0-9.86,0-14.78a6.55,6.55,0,0,1,.13-1.25,1.29,1.29,0,0,1,1.15-1,4.43,4.43,0,0,1,.63,0c2.38,0,4.77,0,7.15,0a7.2,7.2,0,0,1,3.69.92,5.59,5.59,0,0,1,2.83,4.38,6.85,6.85,0,0,1-1,4.67,5.62,5.62,0,0,1-2.62,2.17,11.31,11.31,0,0,1-4.38.73c-.73,0-1.46,0-2.3,0Zm0-5h2.93a1.7,1.7,0,0,0,1.77-1.26,2.38,2.38,0,0,0,0-1.76,1.5,1.5,0,0,0-1.35-1.05c-1.09-.05-2.18,0-3.31,0ZM91.36,45a7.79,7.79,0,0,0,7.21-5.28,15.47,15.47,0,0,0,.77-6.19A10.55,10.55,0,0,0,98.56,30a7.3,7.3,0,0,0-4.92-4.49,12.47,12.47,0,0,0-7.57.27,10.36,10.36,0,0,0-1.36.62.57.57,0,0,0-.29.79c.36,1,.71,1.91,1.1,2.86.16.39.34.46.75.37A9.88,9.88,0,0,0,87.48,30a8.41,8.41,0,0,1,3.27-.28,3,3,0,0,1,2.8,2.93h-5.1c-.74,0-.79.07-.79.82s0,1.68,0,2.52.07.79.82.8h5.28c-.24.68-.39,1.24-.63,1.76a2.75,2.75,0,0,1-2.32,1.66,10.76,10.76,0,0,1-2.66-.09,24,24,0,0,1-2.7-.83c-.56-.18-.66-.15-.92.38-.42.85-.82,1.7-1.22,2.55-.3.67-.25.82.4,1.2a11.48,11.48,0,0,0,3.2,1.26A16.69,16.69,0,0,0,91.36,45ZM165,43.74q0-5.93,0-11.87a8,8,0,0,1,.09-1.09,1,1,0,0,1,.86-.9,4.37,4.37,0,0,1,1-.11c2.09,0,4.19,0,6.29,0,.67,0,.79-.11.8-.77,0-1,0-2,0-3a3.53,3.53,0,0,0-.11-.65c-.32,0-.61-.05-.89-.05h-8a6.79,6.79,0,0,0-.78,0,4.56,4.56,0,0,0-4.24,3.3,6.56,6.56,0,0,0-.27,1.7c0,4.51,0,9,0,13.53,0,.76.09.85.86.86H164C165,44.74,165,44.74,165,43.74Zm-115.51,1a13.45,13.45,0,0,0,2.17.09.88.88,0,0,0,.84-.44l5.76-8.16a4.32,4.32,0,0,0,.18-.44H51A34.72,34.72,0,0,1,49.46,44.72Zm35.41,7.2-.17.59L84.58,52l-.06-.2-.66-2.06h-1v3.69h.68V51.21c0-.13,0-.4,0-.8l.28,1,.67,2.06H85l.66-2.06c.06-.19.15-.51.28-1,0,.38,0,.6,0,.65v2.39h.69V49.76h-1Zm3.2,0h2v-.6h-2v-.92h2.12v-.6h-2.9v3.69h3v-.6H88.07Zm6.54-1.06.66-1.06h-.79l-.52.85a3.92,3.92,0,0,1-.41.59.36.36,0,0,1-.24.13V49.76h-.74v1.57a.36.36,0,0,1-.25-.13,6,6,0,0,1-.41-.59l-.51-.85h-.79l.66,1.06a2.32,2.32,0,0,0,.42.58l-1.2,2.05h.83l.92-1.68a.38.38,0,0,0,.14,0,.65.65,0,0,0,.19,0v1.61h.74V51.84a.72.72,0,0,0,.33-.07l.91,1.68h.83L94.19,51.4A2.32,2.32,0,0,0,94.61,50.82Zm4,2h.49v1.7h-.66V53.45H96.06v1.06H95.4v-1.7h.41a4.06,4.06,0,0,0,.34-.85,8.31,8.31,0,0,0,.22-1l.16-1.16h2.06Zm-.74-2.41h-.69l-.08.61a9.7,9.7,0,0,1-.2,1,4.14,4.14,0,0,1-.26.78h1.23Zm3.21,1.14-1-1.78h-.81l1.46,2.44a3.94,3.94,0,0,1-.22.41.47.47,0,0,1-.17.15.41.41,0,0,1-.21.05,1,1,0,0,1-.41-.11l-.22.64a.88.88,0,0,0,.29.11,1.64,1.64,0,0,0,.37,0,1.17,1.17,0,0,0,.45-.08.91.91,0,0,0,.34-.25,2.57,2.57,0,0,0,.33-.56l1.38-2.85h-.79Zm4.25-.31h-1.6V49.76h-.78v3.69h.78V51.87h1.6v1.58h.78V49.76h-.78Zm3.53-1.47,1.34,3.69h-.77l-.32-1h-1.41l-.33,1h-.77l1.35-3.69Zm.07,2.16-.36-1.06-.11-.35-.06-.18v.05c0,.07,0,.14-.07.22s-.17.52-.45,1.32Zm4.8-1a1.21,1.21,0,0,1-.16.63,1.11,1.11,0,0,1-.47.44,1.58,1.58,0,0,1-.71.15h-.92v1.3h-.77V49.76h1.65a1.51,1.51,0,0,1,1,.3A1.08,1.08,0,0,1,113.71,50.93Zm-.78,0c0-.39-.22-.58-.68-.58h-.8v1.19h.82a.72.72,0,0,0,.49-.15A.58.58,0,0,0,112.93,50.94Zm4.35-.73a1.9,1.9,0,0,1,.49,1.38,2.18,2.18,0,0,1-.23,1,1.61,1.61,0,0,1-.65.67,2.07,2.07,0,0,1-1,.23,1.8,1.8,0,0,1-1.36-.51,1.93,1.93,0,0,1-.5-1.4,1.88,1.88,0,0,1,.5-1.39,2.11,2.11,0,0,1,2.74,0Zm-.3,1.38a1.42,1.42,0,0,0-.28-.94,1,1,0,0,0-.8-.34,1,1,0,0,0-.8.34,1.71,1.71,0,0,0,0,1.89,1,1,0,0,0,.79.35,1,1,0,0,0,.8-.34A1.46,1.46,0,0,0,117,51.59Zm4.18,1.22h.49v1.7H121V53.45h-2.37v1.06H118v-1.7h.41a4.08,4.08,0,0,0,.33-.85,6.85,6.85,0,0,0,.23-1l.16-1.16h2.06Zm-.74-2.41h-.69l-.08.61a9.7,9.7,0,0,1-.2,1,5,5,0,0,1-.26.78h1.23Zm4.06.83h-1.61V49.76h-.77v3.69h.77V51.87h1.61v1.58h.77V49.76h-.77ZM128,49.76l1.34,3.69h-.76l-.33-1h-1.4l-.33,1h-.77l1.34-3.69Zm.08,2.16-.36-1.06-.12-.35,0-.18,0,.05c0,.07,0,.14-.06.22s-.17.52-.45,1.32Zm3.06-2.16H133v3.69h-.77v-1.4h-.91l-.85,1.4h-.87l1-1.55a1.07,1.07,0,0,1-.59-.37,1,1,0,0,1-.22-.67,1,1,0,0,1,.36-.82A1.61,1.61,0,0,1,131.14,49.76Zm.08.6c-.46,0-.68.17-.68.53a.53.53,0,0,0,.16.41.73.73,0,0,0,.5.15h1V50.36Zm5.16,0h1.19v3.09h.77V50.36h1.19v-.6h-3.15Zm6.61.57a1.21,1.21,0,0,1-.17.63,1.15,1.15,0,0,1-.46.44,1.59,1.59,0,0,1-.72.15h-.92v1.3H140V49.76h1.66a1.55,1.55,0,0,1,1,.3A1.08,1.08,0,0,1,143,50.93Zm-.78,0c0-.39-.23-.58-.69-.58h-.8v1.19h.82a.7.7,0,0,0,.49-.15A.59.59,0,0,0,142.21,50.94Zm2.88-1.18,1.34,3.69h-.77l-.32-1h-1.41l-.33,1h-.77l1.35-3.69Zm.07,2.16-.36-1.06-.11-.35-.06-.18v.05c0,.07,0,.14-.07.22s-.17.52-.45,1.32Zm4.15-.69H147.7V49.76h-.77v3.69h.77V51.87h1.61v1.58h.77V49.76h-.77Zm3.21,1.66a1,1,0,0,1-.8-.33,1.48,1.48,0,0,1-.28-1,1.44,1.44,0,0,1,.27-1,1,1,0,0,1,.79-.33,1.17,1.17,0,0,1,.6.16.81.81,0,0,1,.34.45l.68-.19a1.38,1.38,0,0,0-.58-.77,1.94,1.94,0,0,0-1-.26,1.81,1.81,0,0,0-1.36.49,1.94,1.94,0,0,0-.47,1.4,1.9,1.9,0,0,0,.49,1.4,1.8,1.8,0,0,0,1.37.51,1.92,1.92,0,0,0,1-.26,1.67,1.67,0,0,0,.64-.8l-.68-.25A1,1,0,0,1,152.52,52.89Zm2.15.56h.77V50.4h1.62v3.05h.75V49.76h-3.14Zm7-3.24a1.86,1.86,0,0,1,.49,1.38,2.18,2.18,0,0,1-.23,1,1.61,1.61,0,0,1-.65.67,2.07,2.07,0,0,1-1,.23,1.8,1.8,0,0,1-1.36-.51,1.93,1.93,0,0,1-.49-1.4,1.87,1.87,0,0,1,.49-1.39,2.11,2.11,0,0,1,2.74,0Zm-.3,1.38a1.42,1.42,0,0,0-.28-.94,1.1,1.1,0,0,0-1.59,0,1.39,1.39,0,0,0-.29.94,1.46,1.46,0,0,0,.29.95,1,1,0,0,0,.79.35,1,1,0,0,0,.8-.34A1.46,1.46,0,0,0,161.32,51.59Zm4.41-.66a1.31,1.31,0,0,1-.16.63,1.17,1.17,0,0,1-.47.44,1.59,1.59,0,0,1-.72.15h-.91v1.3h-.78V49.76h1.66a1.55,1.55,0,0,1,1,.3A1.08,1.08,0,0,1,165.73,50.93Zm-.78,0c0-.39-.23-.58-.69-.58h-.79v1.19h.82a.74.74,0,0,0,.49-.15A.62.62,0,0,0,165,50.94Zm1-.58h1.19v3.09h.77V50.36h1.2v-.6H165.9Zm5.95.87h-1.6V49.76h-.78v3.69h.78V51.87h1.6v1.58h.78V49.76h-.78Zm3.53-1.47,1.34,3.69H176l-.32-1h-1.41l-.33,1h-.77l1.35-3.69Zm.07,2.16-.36-1.06-.11-.35-.06-.18v.05c0,.07,0,.14-.07.22s-.17.52-.45,1.32Zm3.06-2.16h1.84v3.69h-.77v-1.4h-.91l-.85,1.4H177l1-1.55a1,1,0,0,1-.82-1,1,1,0,0,1,.36-.82A1.61,1.61,0,0,1,178.51,49.76Zm.08.6c-.45,0-.68.17-.68.53a.53.53,0,0,0,.17.41.7.7,0,0,0,.49.15h1V50.36Zm6.07.46.69-1.06h-.78l-.54.85a3.89,3.89,0,0,1-.41.56.45.45,0,0,1-.29.16V49.76h-.77v3.69h.77V51.86l.18,0,.15-.06,1,1.68h.84l-1.27-2.05A3,3,0,0,0,184.66,50.82Zm4.26-.61a1.87,1.87,0,0,1,.5,1.38,2.18,2.18,0,0,1-.23,1,1.61,1.61,0,0,1-.65.67,2.07,2.07,0,0,1-1,.23,1.8,1.8,0,0,1-1.36-.51,1.93,1.93,0,0,1-.5-1.4,1.88,1.88,0,0,1,.5-1.39,1.82,1.82,0,0,1,1.36-.5A1.8,1.8,0,0,1,188.92,50.21Zm-.29,1.38a1.42,1.42,0,0,0-.28-.94,1.11,1.11,0,0,0-1.6,0,1.39,1.39,0,0,0-.28.94,1.46,1.46,0,0,0,.29.95,1,1,0,0,0,.79.35,1,1,0,0,0,.8-.34A1.46,1.46,0,0,0,188.63,51.59Zm3.41.33-.16.59-.13-.49-.05-.2L191,49.76h-1v3.69h.69V51.21c0-.13,0-.4,0-.8l.28,1,.66,2.06h.55l.67-2.06c.06-.19.15-.51.27-1,0,.38,0,.6,0,.65s0,.1,0,.15v2.24h.69V49.76h-1Zm2.43,1.53h.77V50.4h1.62v3.05h.74V49.76h-3.13Zm5.88-3.69,1.34,3.69h-.76l-.33-1h-1.4l-.33,1h-.77l1.34-3.69Zm.08,2.16-.37-1.06-.11-.35,0-.18,0,.05-.06.22-.45,1.32Zm4.14-.69H203V49.76h-.77v3.69H203V51.87h1.61v1.58h.77V49.76h-.77Zm2.16,1.39c0-.29,0-.53,0-.72V49.76h-.69v3.69h.88l1.6-2.84c0,.3,0,.53,0,.66v2.18h.69V49.76h-.87Zm6.32-2.86v3.69h-.77v-1.4h-.9l-.86,1.4h-.87l1-1.55a1,1,0,0,1-.82-1,1,1,0,0,1,.36-.82,1.61,1.61,0,0,1,1-.28Zm-.77.6h-1c-.45,0-.68.17-.68.53a.53.53,0,0,0,.17.41.7.7,0,0,0,.49.15h1Z"/></svg>