<?xml version="1.0" encoding="utf-8"?>
<!-- Generator: Adobe Illustrator 19.0.1, SVG Export Plug-In . SVG Version: 6.00 Build 0)  -->
<svg version="1.1" id="Capa_1" xmlns="http://www.w3.org/2000/svg" xmlns:xlink="http://www.w3.org/1999/xlink" x="0px" y="0px"
	 viewBox="-243 245 512 512" style="enable-background:new -243 245 512 512;" xml:space="preserve">
<style type="text/css">
	.st0{fill:#FF393C;}
</style>
<g>
	<g>
		<g>
			<path class="st0" d="M264.1,673.4L44.2,292.5c-6.5-11.3-18.2-18-31.2-18s-24.7,6.7-31.2,18l-219.9,380.9c-6.5,11.3-6.5,24.8,0,36
				c6.5,11.3,18.2,18,31.2,18h439.8c13,0,24.7-6.7,31.2-18C270.6,698.2,270.6,684.7,264.1,673.4z M238.1,694.4c-0.6,1.1-2.2,3-5.2,3
				h-439.8c-3,0-4.6-1.9-5.2-3c-0.6-1.1-1.5-3.4,0-6L7.8,307.6c1.5-2.6,3.9-3,5.2-3c1.3,0,3.7,0.4,5.2,3l219.9,380.9
				C239.6,691,238.7,693.3,238.1,694.4z"/>
			<rect x="-2" y="411.1" class="st0" width="30" height="160.2"/>
			<circle class="st0" cx="13" cy="621.4" r="20"/>
		</g>
	</g>
</g>
</svg>
